<?xml version="1.0" encoding="UTF-8" standalone="no"?><!DOCTYPE svg PUBLIC "-//W3C//DTD SVG 1.1//EN" "http://www.w3.org/Graphics/SVG/1.1/DTD/svg11.dtd"><svg width="100%" height="100%" viewBox="0 0 20 20" version="1.1" xmlns="http://www.w3.org/2000/svg" xmlns:xlink="http://www.w3.org/1999/xlink" xml:space="preserve" xmlns:serif="http://www.serif.com/" style="fill-rule:evenodd;clip-rule:evenodd;stroke-linejoin:round;stroke-miterlimit:1.41421;"><path d="M5.173,16.49c-0.197,0.653 -0.812,1.135 -1.531,1.135c-0.876,0 -1.597,-0.714 -1.599,-1.582c-0.018,-0.733 0.491,-1.383 1.213,-1.547l0,-2.949c-0.732,-0.158 -1.258,-0.805 -1.258,-1.547c0,-0.742 0.526,-1.389 1.258,-1.547l0,-2.949c-0.722,-0.164 -1.231,-0.814 -1.213,-1.548c0.002,-0.868 0.723,-1.581 1.599,-1.581c0.662,0 1.236,0.408 1.477,0.983l1.819,0c0.004,-0.016 0.007,-0.031 0.011,-0.046c0.228,-0.883 1.066,-1.547 1.989,-1.582c1.183,-0.015 2.367,-0.022 3.551,-0.023l0.222,0.001c1.109,0.001 2.219,0.008 3.328,0.022c0.923,0.035 1.762,0.699 1.989,1.582c0.327,1.269 -0.722,2.588 -1.989,2.636c-1.183,0.015 -2.367,0.022 -3.55,0.023l-0.222,-0.001c-1.11,-0.001 -2.219,-0.008 -3.329,-0.022c-0.926,-0.035 -1.736,-0.75 -1.977,-1.627l-1.774,0l-0.002,0.045c-0.151,0.559 -0.605,1.007 -1.194,1.138l0,2.949c0.56,0.126 0.996,0.542 1.16,1.065l1.787,0c0.004,-0.015 0.007,-0.03 0.011,-0.045c0.228,-0.883 1.066,-1.547 1.989,-1.582c1.183,-0.015 2.367,-0.022 3.551,-0.023l0.222,0.001c1.109,0.001 2.219,0.008 3.328,0.022c0.923,0.035 1.762,0.699 1.989,1.582c0.327,1.269 -0.722,2.588 -1.989,2.636c-1.183,0.015 -2.367,0.022 -3.55,0.023l-0.222,-0.001c-1.11,-0.001 -2.219,-0.008 -3.329,-0.022c-0.926,-0.035 -1.736,-0.75 -1.977,-1.627l-1.81,0c-0.164,0.523 -0.6,0.939 -1.16,1.065l0,2.949c0.551,0.122 0.984,0.523 1.161,1.031l1.786,0c0.004,-0.015 0.007,-0.03 0.011,-0.045c0.228,-0.883 1.066,-1.547 1.989,-1.582c1.183,-0.015 2.367,-0.022 3.551,-0.023l0.222,0c1.109,0.001 2.219,0.009 3.328,0.023c0.923,0.035 1.762,0.699 1.989,1.582c0.327,1.269 -0.722,2.587 -1.989,2.636c-1.183,0.015 -2.367,0.022 -3.55,0.022l-0.222,0c-1.11,-0.001 -2.219,-0.008 -3.329,-0.022c-0.926,-0.036 -1.736,-0.75 -1.977,-1.628l-1.788,0Zm7.426,0.722c1.139,-0.009 2.278,-0.03 3.416,-0.044c0.498,-0.019 0.951,-0.37 1.086,-0.842c0.201,-0.709 -0.398,-1.467 -1.119,-1.477c-1.092,0 -2.183,-0.006 -3.275,-0.01l-0.218,0c-1.165,0.003 -2.329,0.01 -3.494,0.01c-0.72,0.01 -1.32,0.768 -1.118,1.477c0.134,0.472 0.587,0.823 1.085,0.842c1.175,0.015 2.351,0.037 3.527,0.044l0.11,0Zm-8.964,-1.862c0.4,0 0.725,0.325 0.725,0.725c0,0.401 -0.325,0.726 -0.725,0.726c-0.401,0 -0.726,-0.325 -0.726,-0.726c0,-0.4 0.325,-0.725 0.726,-0.725Zm8.964,-4.147c1.139,-0.008 2.278,-0.03 3.416,-0.044c0.498,-0.019 0.951,-0.37 1.086,-0.842c0.201,-0.709 -0.398,-1.467 -1.119,-1.476c-1.092,0 -2.183,-0.007 -3.275,-0.011l-0.218,0c-1.165,0.003 -2.329,0.011 -3.494,0.011c-0.72,0.009 -1.32,0.767 -1.118,1.476c0.134,0.472 0.587,0.823 1.085,0.842c1.175,0.015 2.351,0.037 3.527,0.045l0.11,-0.001Zm-8.964,-1.92c0.4,0 0.725,0.325 0.725,0.725c0,0.401 -0.325,0.726 -0.725,0.726c-0.401,0 -0.726,-0.325 -0.726,-0.726c0,-0.4 0.325,-0.725 0.726,-0.725Zm8.964,-4.241c1.139,-0.008 2.278,-0.03 3.416,-0.044c0.498,-0.019 0.951,-0.37 1.086,-0.842c0.201,-0.709 -0.398,-1.467 -1.119,-1.476c-1.092,0 -2.183,-0.007 -3.275,-0.011l-0.218,0c-1.165,0.003 -2.329,0.011 -3.494,0.011c-0.72,0.009 -1.32,0.767 -1.118,1.476c0.134,0.472 0.587,0.823 1.085,0.842c1.175,0.015 2.351,0.037 3.527,0.045l0.11,-0.001Zm-8.964,-1.849c0.4,0 0.725,0.325 0.725,0.725c0,0.4 -0.325,0.725 -0.725,0.725c-0.401,0 -0.726,-0.325 -0.726,-0.725c0,-0.4 0.325,-0.725 0.726,-0.725Z"/></svg>